<svg width="724" height="140" viewBox="0 0 724 140" fill="none" xmlns="http://www.w3.org/2000/svg">
<path d="M90.6 67.4H86V72.2H90.6V133.6C90.6 137.2 87.6 140 84 140H7.2C3.6 140 0.8 137.2 0.8 133.6V72.2H5.4V67.4H0.8V6.59999C0.8 2.99999 3.6 -9.53674e-06 7.2 -9.53674e-06H84C87.6 -9.53674e-06 90.6 2.99999 90.6 6.59999V67.4ZM62.8 76.4V72.2H18.6V128.6H32V76.4H62.8ZM72.6 24.4V11.2H18.6V67.4H62.8V63.2H32V24.4H72.6ZM196.108 67.4H191.508V72.2H196.108V133.6C196.108 137.2 193.108 140 189.508 140H112.708C109.108 140 106.308 137.2 106.308 133.6V72.2H110.908V67.4H106.308V6.59999C106.308 2.99999 109.108 -9.53674e-06 112.708 -9.53674e-06H189.508C193.108 -9.53674e-06 196.108 2.99999 196.108 6.59999V67.4ZM178.108 76.4V72.2H124.108V128.6H178.108V115.2H137.508V76.4H178.108ZM178.108 24.4V11.2H124.108V67.4H178.108V63.2H137.508V24.4H178.108ZM301.616 67.4H297.016V72.2H301.616V133.6C301.616 137.2 298.616 140 295.016 140H218.216C214.616 140 211.816 137.2 211.816 133.6V72.2H216.416V67.4H211.816V6.59999C211.816 2.99999 214.616 -9.53674e-06 218.216 -9.53674e-06H295.016C298.616 -9.53674e-06 301.616 2.99999 301.616 6.59999V67.4ZM281.016 79.8C282.416 77.2 283.016 74.6 283.416 72.2H269.816C268.816 75.6 266.416 76.6 262.016 76.6H243.016V72.2H229.616V128.6H242.816V90H262.016C273.416 90 278.616 84.4 281.016 79.8ZM283.616 66.8V32C283.616 25.2 280.416 19.2 274.616 15.4C269.816 12.4 264.216 11.2 260.616 11.2H229.616V67.4H243.016V24.4H260.616C262.016 24.4 264.816 25 267.216 26.4C269.416 27.8 270.416 29.6 270.416 32V66.8C270.416 67 270.416 67.2 270.416 67.4H283.616C283.616 67.2 283.616 67 283.616 66.8ZM407.123 67.4H402.523V72.2H407.123V133.6C407.123 137.2 404.123 140 400.523 140H323.723C320.123 140 317.323 137.2 317.323 133.6V72.2H321.923V67.4H317.323V6.59999C317.323 2.99999 320.123 -9.53674e-06 323.723 -9.53674e-06H400.523C404.123 -9.53674e-06 407.123 2.99999 407.123 6.59999V67.4ZM512.436 67.4H507.836V72.2H512.436V133.6C512.436 137.2 509.436 140 505.836 140H429.036C425.436 140 422.636 137.2 422.636 133.6V72.2H427.236V67.4H422.636V6.59999C422.636 2.99999 425.436 -9.53674e-06 429.036 -9.53674e-06H505.836C509.436 -9.53674e-06 512.436 2.99999 512.436 6.59999V67.4ZM494.436 105.4V72.2H481.036V105.4C481.036 113 479.236 115.2 472.836 115.2H453.836V72.2H440.436V128.6H472.836C484.036 128.6 489.436 123 491.836 118.4C494.436 113.4 494.436 107.8 494.436 105.4ZM494.436 67.4V32C494.436 25.2 491.236 19.2 485.436 15.4C480.636 12.4 475.036 11.2 471.436 11.2H440.436V67.4H453.836V24.4H471.436C472.836 24.4 475.636 25 477.836 26.4C480.036 27.8 481.036 29.6 481.036 32V67.4H494.436ZM617.944 67.4H613.344V72.2H617.944V133.6C617.944 137.2 614.944 140 611.344 140H534.544C530.944 140 528.144 137.2 528.144 133.6V72.2H532.744V67.4H528.144V6.59999C528.144 2.99999 530.944 -9.53674e-06 534.544 -9.53674e-06H611.344C614.944 -9.53674e-06 617.944 2.99999 617.944 6.59999V67.4ZM599.944 76.4V72.2H545.944V128.6H599.944V115.2H559.344V76.4H599.944ZM599.944 24.4V11.2H545.944V67.4H599.944V63.2H559.344V24.4H599.944ZM723.452 67.4H718.852V72.2H723.452V133.6C723.452 137.2 720.452 140 716.852 140H640.052C636.452 140 633.652 137.2 633.652 133.6V72.2H638.252V67.4H633.652V6.59999C633.652 2.99999 636.452 -9.53674e-06 640.052 -9.53674e-06H716.852C720.452 -9.53674e-06 723.452 2.99999 723.452 6.59999V67.4ZM651.652 16.8L660.852 67.4H674.452L664.852 15.2L664.052 11.2H650.452L651.652 16.8ZM685.652 124.6L695.252 72.2H681.652L678.452 89.6L675.252 72.2H661.852L671.452 124.6L672.052 128.6H684.852L685.652 124.6ZM705.252 16.8L706.452 11.2H692.852L692.252 15.2L682.452 67.4H696.052L705.252 16.8Z" fill="black"/>
</svg>
